<svg version="1.1" xmlns="http://www.w3.org/2000/svg" style="display: block;" viewBox="0 0 2048 2048" width="1024" height="1024" preserveAspectRatio="none">
<defs>
	<linearGradient id="Gradient1" gradientUnits="userSpaceOnUse" x1="962.514" y1="1017.45" x2="693.814" y2="1057.51">
		<stop class="stop0" offset="0" stop-opacity="1" stop-color="rgb(131,128,176)"/>
		<stop class="stop1" offset="1" stop-opacity="1" stop-color="rgb(116,147,187)"/>
	</linearGradient>
	<linearGradient id="Gradient2" gradientUnits="userSpaceOnUse" x1="865.749" y1="965.016" x2="238.515" y2="982.19">
		<stop class="stop0" offset="0" stop-opacity="1" stop-color="rgb(125,129,178)"/>
		<stop class="stop1" offset="1" stop-opacity="1" stop-color="rgb(107,191,205)"/>
	</linearGradient>
</defs>
<path transform="translate(0,0)" fill="rgb(254,253,254)" d="M 812.038 639.387 C 844.132 634.374 881.814 663.925 870.573 698.44 C 867.074 709.185 855.725 714.56 845.312 710.324 C 835.121 706.18 834.398 694.83 830.444 685.572 L 828.751 685.955 C 825.471 686.676 822.314 687.323 819.349 688.982 C 774.245 714.223 710.183 905.866 695.285 961.141 C 714.002 960.401 721.932 962.025 726.851 981.395 C 753.046 949.338 775.424 921.347 817.04 909.732 C 866.205 896.01 923.442 932.606 887.557 986.03 C 894.471 992.12 904.482 1001.35 903.296 1011.71 C 901.329 1028.89 893.335 1045.6 888.413 1062.22 C 883.514 1078.76 880.162 1094.41 877.441 1111.39 C 896.453 1091.63 911.896 1062.1 924.62 1037.83 C 932.46 1022.88 935.908 1001.33 952.4 994.483 C 948.851 975.64 947.006 930.973 971.28 923.242 C 978.197 921.04 995.624 924.046 1003.6 925.508 C 1036.43 931.526 1066.03 923.228 1094.53 906.89 C 1098.54 904.594 1108.68 910.324 1111.95 913.221 C 1124.71 923.594 1133.77 949.04 1123.6 963.96 C 1103.15 993.976 1075.79 1025.98 1051.44 1053.13 C 1067.47 1058.57 1069.84 1061.55 1081.37 1073.99 C 1113.32 1043.55 1112.21 1045.98 1125.48 1005.65 C 1131.97 985.916 1152.71 918.989 1164.8 905.83 C 1183.23 899.462 1204.41 907.981 1215.43 924.044 C 1218 927.781 1220.6 936.352 1219.72 940.931 C 1215.52 962.777 1205.65 983.55 1198.52 1004.57 C 1187.7 1035.27 1177.33 1063.74 1170.38 1095.38 C 1198.27 1067.98 1221.1 1033.94 1238.61 999.046 C 1248.14 980.035 1269.1 917.22 1279.95 907.543 C 1284.03 903.904 1289.54 903.145 1294.82 903.73 C 1306.59 905.033 1320.86 912.095 1328.09 921.476 C 1332.36 927.015 1334.51 932.909 1334.03 939.937 C 1333.06 954.014 1326.1 967.659 1321.61 980.88 C 1309.58 1016.23 1288.48 1071.64 1284.12 1107.41 C 1316.03 1074.06 1327.8 1045.97 1348.39 1005.9 C 1354.26 994.492 1361.28 980.352 1368.37 969.923 C 1341.59 952.177 1338.38 925.621 1346.35 896.742 C 1351.85 876.802 1362.83 857.496 1381.47 847.221 C 1399.08 837.443 1421.91 840.978 1431.07 860.321 C 1442.33 884.127 1432.35 914.631 1424.05 938.188 C 1440.35 935.399 1453.22 929.756 1468.73 925.533 C 1488.6 920.124 1513.52 947.502 1510.76 966.451 C 1508.83 979.789 1498.02 994.821 1491.58 1006.59 C 1469.41 1047.1 1441.45 1086.93 1429.19 1131.86 C 1427.26 1139.05 1428.03 1146.26 1429.26 1153.24 C 1456.27 1135.48 1475.42 1095.21 1491.82 1067.91 C 1497.65 1058.21 1501.69 1046.57 1504.65 1035.69 C 1513 1004.94 1523.69 975.189 1535.2 945.511 C 1539.03 935.638 1541.26 924.864 1546.07 915.378 C 1558.69 891.688 1596.04 906.966 1606.35 925.258 C 1609.34 930.59 1610.45 936.77 1609.52 942.811 C 1607.26 957.082 1595.37 986.059 1589.91 1001 C 1577.92 1033.78 1566.98 1062.62 1558.59 1096.62 C 1600.28 1062.42 1627.76 1002.59 1648.81 954.057 C 1658.13 936.336 1660.7 893.578 1690.82 902.781 C 1728.52 914.295 1730.58 935.462 1718.75 966.596 C 1701.62 1011.7 1683.34 1059.76 1673.05 1106.5 C 1703.45 1079.3 1718.53 1041.68 1737.81 1006.95 C 1740.65 1001.82 1744.65 997.044 1750.64 995.941 C 1754.8 995.361 1763.75 996.287 1767.1 998.948 C 1785.87 1013.86 1769.32 1033.6 1761.99 1048.6 C 1745.61 1082.12 1730.1 1113.64 1702.63 1139.55 C 1680.46 1160.45 1657.37 1165.93 1631.88 1146.36 C 1619.38 1136.66 1611.52 1120.63 1609.8 1104.96 C 1587.9 1129.99 1554.81 1166.24 1517.97 1143.18 C 1512.04 1139.46 1508.25 1134.38 1504.25 1128.83 C 1488.35 1155.12 1467.15 1184.55 1437.03 1194.97 C 1405.79 1205.78 1377.14 1180.69 1369.03 1151.98 C 1352.48 1093.36 1396.91 1027.81 1423.89 978.167 C 1417.69 978.85 1411.25 978.943 1405 979.166 C 1392.08 1010.57 1377.37 1041.2 1360.93 1070.9 C 1351.23 1088.03 1340.75 1104.5 1329.42 1120.75 C 1309.64 1149.15 1275.91 1172.55 1242.87 1147.37 C 1229.56 1137.24 1223.68 1122.85 1221.43 1106.77 C 1199.04 1129.99 1172.4 1161.75 1136.01 1146.31 C 1120.13 1139.57 1113.17 1124.91 1107.48 1109.93 L 1098.07 1116.18 C 1098.66 1157.41 1086.12 1193.66 1064.49 1228.81 C 1034.71 1275.86 994.477 1321.56 938.976 1336.95 C 906.798 1345.87 862.066 1336.07 853.453 1298.98 C 843.785 1257.33 886.552 1220.56 914.424 1196.15 C 942.124 1171.88 974.971 1151.81 1005.33 1130.92 C 1016.41 1123.23 1029.88 1117.28 1038.17 1106.5 C 1040.94 1102.89 1038.46 1097.77 1034.54 1096.49 C 1013.14 1087.56 997.437 1109.64 979.56 1116.46 C 960.897 1123.58 948.009 1104.6 943.358 1089.12 C 941.006 1093.42 938.503 1097.63 935.855 1101.76 C 922.348 1122.87 900.947 1156.98 874.819 1161.21 C 838.157 1167.15 818.796 1134.58 813.432 1104.4 C 798.443 1121.04 782.814 1138.12 761.652 1146.65 C 732.195 1158.53 701.135 1147.03 690.361 1116.22 C 676.563 1076.76 696.578 1035.02 712.766 999.625 C 703.063 1000.26 693.349 1000.72 683.629 1000.99 C 672.585 1041.98 663.441 1083.44 656.226 1125.27 C 651.001 1155.95 641.382 1222.2 658.562 1250.21 C 666.652 1263.41 680.731 1247.63 692.363 1249.44 C 696.879 1250.12 700.898 1252.67 703.436 1256.47 C 711.432 1268.54 701.449 1286.19 689.955 1291.83 C 655.97 1308.54 616.705 1288.55 600.623 1256.67 C 570.611 1197.16 582.448 1125.81 594.48 1063.12 C 598.43 1042.54 603.182 1019.66 609.156 999.879 C 585.567 999.934 559.324 1001.41 536.175 1000.58 C 520.051 1058.9 491.918 1120.53 458.105 1170.57 C 417.497 1230.27 341.813 1275.05 273.081 1230.16 C 211.27 1189.79 211.28 1043.51 293.376 1026.07 C 302.213 1024.19 324.28 1028.66 329.974 1035.84 C 348.174 1058.78 340.789 1071.95 311.981 1072.06 C 258.784 1102.69 272.825 1231.37 341.971 1197.67 C 396.51 1171.1 437.498 1059.02 455.92 1006.13 C 447.731 1007.16 439.239 1009.79 431.116 1010.15 C 407.412 1011.02 407.803 980.632 419.888 967.799 C 430.894 956.112 458.252 956.578 473.514 955.946 C 486.278 910.274 500.977 865.098 511.512 818.765 C 515.323 802.003 522.974 770.49 523.028 753.568 C 470.232 762.539 405.57 800.662 392.063 857.57 C 387.114 878.417 414.608 880.095 409.8 900.686 C 406.708 913.927 388.235 915.365 377.574 912.997 C 362.06 909.442 348.61 899.835 340.217 886.311 C 305.918 832.113 361.393 770.87 406.015 745.07 C 443.139 722.711 497.235 701.214 541.248 710.573 C 599.716 723.006 588.322 791.378 580.895 833.99 C 573.415 876.905 561.357 915.588 551.056 957.031 C 573.889 956.855 596.034 957.847 618.724 957.83 C 647.335 870.899 676.147 780.737 727.501 704.161 C 747.82 673.862 773.534 643.77 812.038 639.387 z M 756.786 1102.59 C 780.314 1081.94 806.65 1047.13 824.248 1020.99 C 830.982 1010.99 837.173 993.933 843.628 983.41 C 844.933 981.281 852.492 977.552 854.987 975.035 C 854.527 970.381 853.327 968.285 851.488 963.977 L 849.535 963.059 C 810.732 978.938 776.524 1028.57 760.924 1066.13 C 757.792 1073.67 750.16 1095.52 753.013 1103 C 755.552 1103.26 754.293 1103.39 756.786 1102.59 z M 1014.23 1173.03 C 989.993 1187.26 895.023 1256.01 895.307 1283.47 C 896.478 1285.19 896.076 1284.93 897.642 1286.17 C 941.797 1288.54 1003.95 1210.82 1015.39 1173.62 L 1014.23 1173.03 z M 976.376 1007.03 C 976.616 1023.35 968.325 1034.15 961.991 1048.77 C 969.016 1041.25 976.101 1033.8 983.245 1026.4 C 997.077 1011.93 1019.12 987.257 1032.97 974.959 C 1019.17 974.87 1006.15 973.992 992.563 973.773 C 990.874 988.845 991.21 996.037 978.292 1005.59 L 976.376 1007.03 z"/>
<path transform="translate(0,0)" fill="rgb(157,129,170)" d="M 1382.16 964.19 C 1350.88 947.374 1350.85 926.103 1359.25 894.079 C 1366.04 868.22 1405.2 835.099 1422.38 870.148 C 1431.13 887.986 1414.27 928.239 1406.35 947.033 C 1430.42 950.413 1453.31 946.233 1475.01 935.712 C 1483.44 940.021 1504.25 954.355 1499.34 965.07 C 1480.81 1004.35 1458.03 1036.91 1438.89 1076.47 C 1433.56 1087.5 1387.18 1182.7 1436.55 1164.76 C 1447.77 1160.68 1468.33 1131.92 1475.29 1121.04 C 1492.33 1094.39 1507.42 1068.7 1516.4 1037.89 C 1520.16 1019.31 1552.5 927.804 1561.27 916.819 C 1565.31 914.522 1569.01 915.094 1573.32 916.384 C 1581.96 918.971 1592.25 924.621 1596.15 933.11 C 1603.97 950.155 1530.92 1099.09 1547.46 1118.26 C 1552.05 1119.08 1556.56 1115.92 1560.17 1113.43 C 1596.74 1088.24 1633.47 1019.04 1651.22 978.567 C 1658.57 961.817 1664.25 944.216 1671.9 927.659 C 1673.46 924.288 1676.34 917.542 1679.84 916.19 C 1682.22 915.272 1684.44 915.419 1686.9 915.859 C 1696.19 917.514 1705.87 922.964 1710.89 931.164 C 1714.55 937.128 1712.56 943.902 1710.77 950.19 C 1702.49 979.357 1650.39 1104.06 1663.04 1125.18 C 1663.89 1126.6 1664.62 1126.92 1666.24 1127.23 C 1671.66 1128.25 1678.13 1123.29 1681.78 1119.94 C 1695.09 1107.7 1705.94 1091.33 1715.3 1075.97 C 1721.89 1065.14 1748.79 1010.77 1752.48 1008.21 C 1753.39 1007.58 1753.62 1007.63 1754.79 1007.73 C 1758.74 1008.09 1761.13 1010.48 1763.59 1013.33 C 1766.57 1024.09 1723.19 1096.01 1713.35 1108.34 C 1697.59 1128.11 1673.78 1158.75 1645.1 1141.21 C 1615.95 1123.56 1621.54 1086 1628.2 1058.22 C 1611.26 1082.95 1594.66 1108.89 1570.79 1128.19 C 1550.8 1144.36 1523.32 1141.16 1511.66 1116.8 C 1509.16 1111.59 1508.19 1106.49 1506.9 1100.76 C 1504.94 1104.34 1495.88 1121.42 1493.62 1123.16 C 1483.58 1142.78 1458.45 1174.93 1436.16 1182.42 C 1425.34 1186.1 1413.48 1185.04 1403.49 1179.49 C 1379.1 1166.11 1373.98 1132.08 1379.52 1107.24 C 1390.77 1056.81 1421.03 1010.94 1446.65 966.527 C 1430.01 967.889 1413.9 969.193 1397.25 967.279 C 1374.26 1019.25 1339.83 1100.39 1294.76 1139 C 1287.78 1144.35 1276.82 1148.43 1267.94 1146.05 C 1224.55 1134.39 1232.69 1089.32 1238.42 1057.68 C 1219.14 1089.01 1169.18 1168.99 1128.44 1124.82 C 1116.94 1112.34 1118.18 1091.74 1119.19 1076.17 C 1106.58 1089.52 1098.58 1096.93 1084.68 1108.34 C 1085.66 1118.26 1086.2 1127.84 1085.23 1137.78 C 1079.54 1195.9 1037.27 1258.12 992.899 1294.28 C 969.083 1313.69 938.643 1329.99 906.984 1326.65 C 893.781 1325.26 880.502 1320.2 872.145 1309.42 C 865.694 1301.09 863.633 1290.98 865.114 1280.66 C 873.59 1221.58 1001.46 1151.74 1047.66 1116.41 C 1056.83 1050.23 996.505 1093.21 971.259 1108.58 C 961.762 1099.62 957.183 1093.31 953.717 1080.59 C 963.706 1066.37 987.513 1042.43 1000.35 1028.73 C 1021.92 1005.74 1043.11 982.392 1063.9 958.693 C 1034.55 965.45 1012.09 961.769 983.301 959.744 C 971.957 966.956 984.781 996.311 967.778 995.059 C 956.008 988.496 962.946 964.247 964.796 953.165 C 969.234 926.577 984.314 934.902 1003.7 937.332 C 1040.28 941.917 1067.45 937.884 1098.6 918.541 C 1109.88 927.711 1113.28 935.672 1117.71 948.834 C 1106.6 977.456 1043.48 1040.3 1020.11 1064.09 C 1047.39 1062.31 1063.66 1066.65 1078.52 1091.62 C 1117.01 1059.76 1125.05 1051.02 1137.61 1004.43 C 1140.94 992.095 1166.25 922.53 1172.61 916.991 C 1178.01 915.147 1183.95 915.793 1189.11 918.221 C 1195.98 921.458 1205.66 927.096 1207.52 935.051 C 1212.18 955.009 1146.28 1090.87 1157.12 1116.18 C 1157.75 1117.64 1158.43 1117.5 1159.79 1118.02 C 1172.9 1115.88 1185.35 1101.33 1193.44 1091.63 C 1234.35 1042.63 1260.49 984.631 1282.74 925.353 C 1290.78 903.931 1316.77 922.928 1323.96 936.448 C 1320.04 966.057 1254.65 1110.88 1275.83 1126.94 C 1277.79 1127.19 1279.35 1127.26 1281.21 1126.56 C 1314.05 1114.26 1365.66 997.746 1382.16 964.19 z M 897.642 1286.17 C 941.797 1288.54 1003.95 1210.82 1015.39 1173.62 L 1014.23 1173.03 C 989.993 1187.26 895.023 1256.01 895.307 1283.47 C 896.478 1285.19 896.076 1284.93 897.642 1286.17 z"/>
<path transform="translate(0,0)" fill="rgb(202,144,156)" d="M 1516.4 1037.89 C 1520.16 1019.31 1552.5 927.804 1561.27 916.819 C 1565.31 914.522 1569.01 915.094 1573.32 916.384 C 1581.96 918.971 1592.25 924.621 1596.15 933.11 C 1603.97 950.155 1530.92 1099.09 1547.46 1118.26 C 1552.05 1119.08 1556.56 1115.92 1560.17 1113.43 C 1596.74 1088.24 1633.47 1019.04 1651.22 978.567 C 1658.57 961.817 1664.25 944.216 1671.9 927.659 C 1673.46 924.288 1676.34 917.542 1679.84 916.19 C 1682.22 915.272 1684.44 915.419 1686.9 915.859 C 1696.19 917.514 1705.87 922.964 1710.89 931.164 C 1714.55 937.128 1712.56 943.902 1710.77 950.19 C 1702.49 979.357 1650.39 1104.06 1663.04 1125.18 C 1663.89 1126.6 1664.62 1126.92 1666.24 1127.23 C 1671.66 1128.25 1678.13 1123.29 1681.78 1119.94 C 1695.09 1107.7 1705.94 1091.33 1715.3 1075.97 C 1721.89 1065.14 1748.79 1010.77 1752.48 1008.21 C 1753.39 1007.58 1753.62 1007.63 1754.79 1007.73 C 1758.74 1008.09 1761.13 1010.48 1763.59 1013.33 C 1766.57 1024.09 1723.19 1096.01 1713.35 1108.34 C 1697.59 1128.11 1673.78 1158.75 1645.1 1141.21 C 1615.95 1123.56 1621.54 1086 1628.2 1058.22 C 1611.26 1082.95 1594.66 1108.89 1570.79 1128.19 C 1550.8 1144.36 1523.32 1141.16 1511.66 1116.8 C 1509.16 1111.59 1508.19 1106.49 1506.9 1100.76 C 1504.94 1104.34 1495.88 1121.42 1493.62 1123.16 L 1493.12 1122.66 C 1493.16 1120.41 1504.08 1100.21 1507.34 1099.84 C 1511.4 1105.55 1510.81 1114.45 1515.55 1120.42 C 1551.98 1166.33 1592.99 1103.93 1614.24 1075.96 C 1618.36 1070.53 1621.41 1060.26 1626.46 1056.73 L 1628.09 1057.37 C 1630.57 1063.52 1626.72 1071.82 1625.67 1078.18 C 1623.2 1093.09 1624.47 1126.51 1639.57 1134.15 L 1641.56 1133.49 C 1646.52 1124.3 1630.4 1048.62 1630.68 1034.11 C 1630.77 1029.65 1640.24 1017.48 1637.91 1012.69 C 1633.06 1017.92 1625.83 1033.27 1621.58 1040.47 C 1611.09 1058.25 1565.88 1128.39 1544.27 1119.09 C 1533.03 1097.86 1591.17 967.216 1595.75 937.866 C 1596.57 932.591 1570.09 904.526 1560.16 923.289 C 1541.15 959.229 1531.67 998.857 1517.9 1036.97 L 1516.4 1037.89 z"/>
<path transform="translate(0,0)" fill="rgb(254,253,254)" d="M 1041.99 1140.24 C 1044.21 1146.08 1027.83 1177.7 1024.23 1185.42 C 1005.78 1224.97 934.327 1317.55 885.269 1297.75 C 864.94 1276.75 918.351 1229.04 933.497 1217.49 C 968.309 1190.94 1005.24 1163.95 1041.99 1140.24 z M 897.642 1286.17 C 941.797 1288.54 1003.95 1210.82 1015.39 1173.62 L 1014.23 1173.03 C 989.993 1187.26 895.023 1256.01 895.307 1283.47 C 896.478 1285.19 896.076 1284.93 897.642 1286.17 z"/>
<path transform="translate(0,0)" fill="rgb(254,253,254)" d="M 1405.15 877.771 C 1407.33 879.828 1408.27 880.146 1408.77 883.446 C 1410.64 895.631 1397.94 933.244 1391.71 941.175 C 1378.81 922.915 1387.81 890.491 1405.15 877.771 z"/>
<path transform="translate(0,0)" fill="url(#Gradient2)" d="M 815.376 651.337 C 838.389 651.142 868.725 667.192 858.582 695.996 C 857.764 698.318 856.362 699.029 854.217 699.7 C 848.509 697.439 845.617 686.387 842.795 681.043 C 840.614 676.911 837.107 672.393 832.363 671.132 C 827.002 669.706 821.078 671.745 816.433 674.363 C 758.934 706.77 699.568 907.385 680.178 972.794 C 690.366 973.254 705.079 970.444 711.837 975.903 C 723.366 995.103 683.052 990.722 674.795 990.499 C 656.275 1060.51 631.318 1155.81 638.396 1228.43 C 640.984 1244.23 644.442 1254.78 656.972 1265.06 C 670.491 1276.15 685.589 1257.93 694.246 1265.35 C 695.348 1271.49 690.352 1277.73 685.484 1280.56 C 658.62 1296.16 625.619 1277.41 612.853 1252.36 C 575.459 1179.01 605.18 1063.79 623.862 989.93 C 591.86 988.982 559.851 988.341 527.837 988.007 C 501.57 1070.39 451.293 1211.24 354.847 1234.22 C 300.912 1247.06 252.132 1211.56 243.503 1157.66 C 238.203 1124.56 241.744 1091.13 260.406 1061.8 C 274.523 1039.9 301.066 1030.33 322.555 1047.19 C 325.529 1049.53 326.888 1050.88 327.377 1054.64 C 324.537 1061.58 314.668 1055.49 308.033 1058.76 C 278.705 1073.2 269.068 1112.65 267.439 1142.1 C 267.664 1157.53 269.158 1170.81 275.662 1185.1 C 281.696 1198.35 289.829 1207.32 303.753 1212.5 C 317.317 1217.55 335.635 1214.77 348.052 1207.81 C 412.52 1171.64 451.522 1057.91 473.279 991.911 C 460.45 991.877 433.608 997.624 427.295 997.138 C 425.164 995.189 424.717 992.68 424.494 989.878 C 422.534 965.241 464.752 968.715 481.048 968.363 C 490.688 938.401 499.877 908.296 508.611 878.058 C 516.964 849.028 542.534 756.991 530.43 746.193 C 503.154 721.862 385.235 802.282 382.826 849.241 C 380.767 889.374 379.356 867.656 396.552 894.238 C 396.558 898.213 396.972 896.317 394.877 900.034 C 389.895 902.408 384.859 902.907 379.465 901.611 C 367.315 898.691 356.526 888.861 350.32 878.304 C 342.098 864.317 341.022 848.026 345.157 832.594 C 354.744 796.817 387.58 770.324 418.444 752.901 C 450.717 734.683 505.086 713.998 542.588 725.007 C 553.783 728.294 563.05 734.682 568.524 745.183 C 590.685 787.697 547.888 923.815 534.112 968.267 C 565.582 968.574 597.044 969.458 628.481 970.919 C 634.133 954.468 638.727 935.74 644.406 919.533 C 669.102 849.057 728.287 661.656 815.376 651.337 z"/>
<path transform="translate(0,0)" fill="url(#Gradient1)" d="M 834.612 919.367 C 896.411 913.693 896.399 982.198 871.609 979.433 C 864.175 972.719 882.128 925.776 831.166 955.908 C 792.16 978.971 748.866 1045.94 739.893 1090.2 C 721.084 1182.97 829.945 1040.27 835.9 1022.7 C 838.061 1016.64 853.113 992.207 855.482 989.555 C 865.201 986.071 895.391 1002.59 891.874 1014.19 C 885.015 1036.83 855.542 1110.05 867.564 1130.23 C 881.487 1138.67 911.777 1086.22 917.877 1076.09 C 930.187 1056.19 939.108 1034.42 948.814 1013.23 C 950.905 1008.67 956.238 1007.28 960.955 1008.91 C 967.635 1015.81 957.756 1033.33 953.961 1041.28 C 937.21 1076.35 918.288 1113.85 889.726 1140.8 C 883.419 1146.75 874.408 1150.9 865.415 1149.64 C 820.649 1141.09 823.883 1094.92 828.77 1062.97 C 818.323 1078.99 807.792 1093.15 794.765 1107.19 C 774.411 1129.14 744.968 1153.77 715.292 1130.77 C 706.335 1123.83 700.025 1112.02 699.018 1100.79 C 692.78 1031.25 763.294 927.269 834.612 919.367 z"/>
</svg>